# xmcd CD database file
#
# Track frame offsets:
#	150
#	24427
#	39502
#	84627
#	134672
#	164042
#	186307
#	203245
#	240322
#	266597
#	283582
#
# Disc length: 4091 seconds
#
# Revision: 0
# Processed by: cddbd v1.5.1PL2 Copyright (c) Steve Scherf et al.
# Submitted via: CDex 1.51
#
DISCID=9e0ff90b
DTITLE=Various Artist - Blue Note Records - February Releases
DYEAR=1996
DGENRE=Jazz
TTITLE0=Baby Plum
TTITLE1=The Rat Race
TTITLE2=Forth Worth
TTITLE3=Lonnie's Lament
TTITLE4=Until
TTITLE5=Love Is Blindness
TTITLE6=Guitarra
TTITLE7=Wave
TTITLE8=Come Rain Or Come Shine
TTITLE9=Yesterdays
TTITLE10=Soft Stuff (And Other Sweet Delights)
EXTD=YEAR: 1996
EXTT0=
EXTT1=
EXTT2=
EXTT3=
EXTT4=
EXTT5=
EXTT6=
EXTT7=
EXTT8=
EXTT9=
EXTT10=
PLAYORDER=
